<mxfile host="Electron" modified="2023-08-06T13:49:42.922Z" agent="Mozilla/5.0 (Windows NT 10.0; Win64; x64) AppleWebKit/537.36 (KHTML, like Gecko) draw.io/21.6.5 Chrome/114.0.5735.243 Electron/25.3.1 Safari/537.36" etag="sKv6wmAlyuHXDIozKw49" version="21.6.5" type="device">
  <diagram id="_OMGhGSZ8zXhmB__TLrg" name="PÃ¡gina-1">
    <mxGraphModel dx="2763" dy="1772" grid="0" gridSize="8" guides="1" tooltips="1" connect="1" arrows="1" fold="1" page="1" pageScale="1" pageWidth="1169" pageHeight="827" math="0" shadow="0">
      <root>
        <mxCell id="0" />
        <mxCell id="1" parent="0" />
        <mxCell id="i-S8iimXWw6h7pxZ6F7j-6" value="" style="group" parent="1" vertex="1" connectable="0">
          <mxGeometry x="-892" y="-567" width="889.26" height="567" as="geometry" />
        </mxCell>
        <mxCell id="1fzlMcAjZT5Cyt2uNbYc-17" value="" style="ellipse;whiteSpace=wrap;html=1;aspect=fixed;fillStyle=auto;strokeColor=#000000;strokeWidth=3;fillColor=#0066CC;movable=1;resizable=1;rotatable=1;deletable=1;editable=1;connectable=1;" parent="i-S8iimXWw6h7pxZ6F7j-6" vertex="1">
          <mxGeometry x="477.1891898994518" y="74.77666666666664" width="182.41733698964043" height="182.41733698964043" as="geometry" />
        </mxCell>
        <mxCell id="1fzlMcAjZT5Cyt2uNbYc-16" value="" style="ellipse;whiteSpace=wrap;html=1;aspect=fixed;fillStyle=auto;strokeColor=#000000;strokeWidth=3;fillColor=#007FFF;movable=1;resizable=1;rotatable=1;deletable=1;editable=1;connectable=1;" parent="i-S8iimXWw6h7pxZ6F7j-6" vertex="1">
          <mxGeometry x="-62.53773366087739" y="74.77777777777783" width="182.41733698964043" height="182.41733698964043" as="geometry" />
        </mxCell>
        <mxCell id="1fzlMcAjZT5Cyt2uNbYc-15" value="" style="ellipse;whiteSpace=wrap;html=1;aspect=fixed;strokeColor=#000000;fillColor=#FF8000;strokeWidth=3;movable=1;resizable=1;rotatable=1;deletable=1;editable=1;connectable=1;" parent="i-S8iimXWw6h7pxZ6F7j-6" vertex="1">
          <mxGeometry x="119.87601862431461" y="-20.555555555555543" width="357.31230956733697" height="357.31230956733697" as="geometry" />
        </mxCell>
        <mxCell id="1fzlMcAjZT5Cyt2uNbYc-12" value="" style="endArrow=none;html=1;strokeWidth=2;rounded=0;jumpStyle=line;dashed=1;startArrow=classic;movable=1;resizable=1;rotatable=1;deletable=1;editable=1;connectable=1;endFill=1;startFill=1;" parent="i-S8iimXWw6h7pxZ6F7j-6" target="1fzlMcAjZT5Cyt2uNbYc-8" edge="1">
          <mxGeometry x="0.1661" y="-12" width="50" height="50" relative="1" as="geometry">
            <mxPoint x="298.75" y="-222" as="sourcePoint" />
            <mxPoint x="297.17836151736765" y="444.8666666666667" as="targetPoint" />
            <mxPoint y="1" as="offset" />
          </mxGeometry>
        </mxCell>
        <mxCell id="1fzlMcAjZT5Cyt2uNbYc-8" value="" style="ellipse;whiteSpace=wrap;html=1;aspect=fixed;fontSize=30;opacity=80;fillColor=#000000;movable=1;resizable=1;rotatable=1;deletable=1;editable=1;connectable=1;" parent="i-S8iimXWw6h7pxZ6F7j-6" vertex="1">
          <mxGeometry x="296.3320955210239" y="165.222222222222" width="8.462659963436929" height="8.462659963436929" as="geometry" />
        </mxCell>
        <mxCell id="1fzlMcAjZT5Cyt2uNbYc-18" value="" style="ellipse;whiteSpace=wrap;html=1;aspect=fixed;fontSize=30;opacity=80;fillColor=#000000;movable=1;resizable=1;rotatable=1;deletable=1;editable=1;connectable=1;" parent="i-S8iimXWw6h7pxZ6F7j-6" vertex="1">
          <mxGeometry x="22.560082266910626" y="165.222222222222" width="8.462659963436929" height="8.462659963436929" as="geometry" />
        </mxCell>
        <mxCell id="1fzlMcAjZT5Cyt2uNbYc-19" value="" style="ellipse;whiteSpace=wrap;html=1;aspect=fixed;fontSize=30;opacity=80;fillColor=#000000;movable=1;resizable=1;rotatable=1;deletable=1;editable=1;connectable=1;" parent="i-S8iimXWw6h7pxZ6F7j-6" vertex="1">
          <mxGeometry x="564.1678382084096" y="165.22111111111087" width="8.462659963436929" height="8.462659963436929" as="geometry" />
        </mxCell>
        <mxCell id="1fzlMcAjZT5Cyt2uNbYc-20" value="" style="endArrow=none;html=1;strokeWidth=2;rounded=0;jumpStyle=line;dashed=1;startArrow=classic;movable=1;resizable=1;rotatable=1;deletable=1;editable=1;connectable=1;endFill=1;startFill=1;" parent="i-S8iimXWw6h7pxZ6F7j-6" edge="1">
          <mxGeometry x="0.1661" y="-12" width="50" height="50" relative="1" as="geometry">
            <mxPoint x="-146.9958866544789" y="169.13333333333333" as="sourcePoint" />
            <mxPoint x="298.7362602833639" y="169.13333333333333" as="targetPoint" />
            <mxPoint y="1" as="offset" />
            <Array as="points" />
          </mxGeometry>
        </mxCell>
        <mxCell id="1fzlMcAjZT5Cyt2uNbYc-28" value="Orden +1" style="text;html=1;align=center;verticalAlign=middle;resizable=1;points=[];autosize=1;strokeColor=none;fillColor=none;fontSize=36;fontFamily=Times New Roman;fontColor=#000000;fontStyle=1;strokeWidth=3;movable=1;rotatable=1;deletable=1;editable=1;connectable=1;" parent="i-S8iimXWw6h7pxZ6F7j-6" vertex="1">
          <mxGeometry x="484.29975319926893" y="441.91666666666674" width="166" height="55" as="geometry" />
        </mxCell>
        <mxCell id="1fzlMcAjZT5Cyt2uNbYc-25" value="Orden -1" style="text;html=1;align=center;verticalAlign=middle;resizable=1;points=[];autosize=1;strokeColor=none;fillColor=none;fontSize=36;fontFamily=Times New Roman;fontColor=#000000;fontStyle=1;strokeWidth=3;movable=1;rotatable=1;deletable=1;editable=1;connectable=1;" parent="i-S8iimXWw6h7pxZ6F7j-6" vertex="1">
          <mxGeometry x="-50.15160934643495" y="444.3522222222223" width="157" height="55" as="geometry" />
        </mxCell>
        <mxCell id="1fzlMcAjZT5Cyt2uNbYc-32" value="&lt;b style=&quot;border-color: var(--border-color);&quot;&gt;&lt;font style=&quot;border-color: var(--border-color); font-size: 30px;&quot;&gt;u&lt;/font&gt;&lt;/b&gt;&lt;span style=&quot;border-color: var(--border-color); font-size: 30px;&quot;&gt;&lt;sub style=&quot;border-color: var(--border-color);&quot;&gt;y&lt;/sub&gt;&lt;/span&gt;" style="text;html=1;align=center;verticalAlign=middle;resizable=1;points=[];autosize=1;strokeColor=none;fillColor=none;fontSize=36;fontStyle=1;strokeWidth=3;movable=1;rotatable=1;deletable=1;editable=1;connectable=1;" parent="i-S8iimXWw6h7pxZ6F7j-6" vertex="1">
          <mxGeometry x="240.3364282449727" y="-229.00333333333333" width="56" height="64" as="geometry" />
        </mxCell>
        <mxCell id="1fzlMcAjZT5Cyt2uNbYc-34" value="&lt;b style=&quot;border-color: var(--border-color);&quot;&gt;&lt;font style=&quot;border-color: var(--border-color); font-size: 30px;&quot;&gt;u&lt;/font&gt;&lt;/b&gt;&lt;span style=&quot;font-size: 30px;&quot;&gt;&lt;sub&gt;x&lt;/sub&gt;&lt;/span&gt;" style="text;html=1;align=center;verticalAlign=middle;resizable=1;points=[];autosize=1;strokeColor=none;fillColor=none;fontSize=36;fontStyle=1;strokeWidth=3;movable=1;rotatable=1;deletable=1;editable=1;connectable=1;" parent="i-S8iimXWw6h7pxZ6F7j-6" vertex="1">
          <mxGeometry x="687.2492858775139" y="159.35555555555555" width="53.85329067641682" height="62.577777777777776" as="geometry" />
        </mxCell>
        <mxCell id="1fzlMcAjZT5Cyt2uNbYc-35" value="" style="endArrow=none;html=1;strokeWidth=2;rounded=0;jumpStyle=line;dashed=1;startArrow=classic;movable=1;resizable=1;rotatable=1;deletable=1;editable=1;connectable=1;endFill=1;startFill=1;" parent="i-S8iimXWw6h7pxZ6F7j-6" edge="1">
          <mxGeometry x="0.1661" y="-12" width="50" height="50" relative="1" as="geometry">
            <mxPoint x="753.1234003656309" y="169.13333333333333" as="sourcePoint" />
            <mxPoint x="297.17836151736765" y="169.13333333333333" as="targetPoint" />
            <mxPoint y="1" as="offset" />
            <Array as="points" />
          </mxGeometry>
        </mxCell>
        <mxCell id="1fzlMcAjZT5Cyt2uNbYc-42" value="Orden 0" style="text;html=1;align=center;verticalAlign=middle;resizable=1;points=[];autosize=1;strokeColor=none;fillColor=none;fontSize=36;fontFamily=Times New Roman;fontColor=#000000;fontStyle=1;strokeWidth=3;movable=1;rotatable=1;deletable=1;editable=1;connectable=1;" parent="i-S8iimXWw6h7pxZ6F7j-6" vertex="1">
          <mxGeometry x="226.41029821755046" y="440.46777777777777" width="144.2498857404022" height="58.666666666666664" as="geometry" />
        </mxCell>
        <mxCell id="i-S8iimXWw6h7pxZ6F7j-1" value="" style="endArrow=none;html=1;rounded=0;strokeColor=#CC0000;strokeWidth=3;fontSize=36;dashed=1;startArrow=baseDash;startFill=0;endFill=0;" parent="i-S8iimXWw6h7pxZ6F7j-6" edge="1">
          <mxGeometry width="50" height="50" relative="1" as="geometry">
            <mxPoint x="29.75" y="3" as="sourcePoint" />
            <mxPoint x="296.1922044456081" y="3.3226160899721062" as="targetPoint" />
          </mxGeometry>
        </mxCell>
        <mxCell id="i-S8iimXWw6h7pxZ6F7j-3" value="" style="endArrow=baseDash;html=1;rounded=0;strokeColor=#CC0000;strokeWidth=3;fontSize=36;dashed=1;startArrow=none;startFill=0;endFill=0;" parent="i-S8iimXWw6h7pxZ6F7j-6" edge="1">
          <mxGeometry width="50" height="50" relative="1" as="geometry">
            <mxPoint x="301.9635157332386" y="3" as="sourcePoint" />
            <mxPoint x="568.4057201788468" y="3.3226160899721062" as="targetPoint" />
          </mxGeometry>
        </mxCell>
        <mxCell id="i-S8iimXWw6h7pxZ6F7j-7" value="" style="endArrow=classic;html=1;dashed=1;strokeColor=#CC0000;strokeWidth=3;fontFamily=Times New Roman;fontSize=36;fontColor=#000000;curved=1;" parent="i-S8iimXWw6h7pxZ6F7j-6" edge="1">
          <mxGeometry x="-0.3703" y="53" width="50" height="50" relative="1" as="geometry">
            <mxPoint x="573.1069881170021" y="417.4888888888888" as="sourcePoint" />
            <mxPoint x="572.6261551645341" y="276.68888888888887" as="targetPoint" />
            <mxPoint y="-1" as="offset" />
          </mxGeometry>
        </mxCell>
        <mxCell id="i-S8iimXWw6h7pxZ6F7j-8" value="" style="endArrow=classic;html=1;dashed=1;strokeColor=#CC0000;strokeWidth=3;fontFamily=Times New Roman;fontSize=36;fontColor=#000000;curved=1;" parent="i-S8iimXWw6h7pxZ6F7j-6" edge="1">
          <mxGeometry x="-0.3703" y="53" width="50" height="50" relative="1" as="geometry">
            <mxPoint x="31.499232175502925" y="419.8033333333333" as="sourcePoint" />
            <mxPoint x="31.018399223034976" y="279.00333333333333" as="targetPoint" />
            <mxPoint y="-1" as="offset" />
          </mxGeometry>
        </mxCell>
        <mxCell id="i-S8iimXWw6h7pxZ6F7j-9" value="" style="endArrow=classic;html=1;dashed=1;strokeColor=#CC0000;strokeWidth=3;fontFamily=Times New Roman;fontSize=36;fontColor=#000000;curved=1;" parent="i-S8iimXWw6h7pxZ6F7j-6" edge="1">
          <mxGeometry x="-0.3703" y="53" width="50" height="50" relative="1" as="geometry">
            <mxPoint x="304.987088665448" y="433.1333333333333" as="sourcePoint" />
            <mxPoint x="304.987088665448" y="367.62222222222215" as="targetPoint" />
            <mxPoint y="-1" as="offset" />
          </mxGeometry>
        </mxCell>
        <mxCell id="Uz3rCEKtNiIDnMT1l0pi-2" value="" style="endArrow=classic;startArrow=classic;html=1;rounded=0;dashed=1;strokeColor=#CC0000;strokeWidth=3;" parent="i-S8iimXWw6h7pxZ6F7j-6" edge="1">
          <mxGeometry width="50" height="50" relative="1" as="geometry">
            <mxPoint x="121.75" y="-102" as="sourcePoint" />
            <mxPoint x="473.75" y="-102" as="targetPoint" />
          </mxGeometry>
        </mxCell>
        <mxCell id="Uz3rCEKtNiIDnMT1l0pi-3" value="" style="endArrow=classic;startArrow=classic;html=1;rounded=0;dashed=1;strokeColor=#CC0000;strokeWidth=3;" parent="i-S8iimXWw6h7pxZ6F7j-6" edge="1">
          <mxGeometry width="50" height="50" relative="1" as="geometry">
            <mxPoint x="477.19" y="-102" as="sourcePoint" />
            <mxPoint x="657.75" y="-102" as="targetPoint" />
          </mxGeometry>
        </mxCell>
        <mxCell id="Uz3rCEKtNiIDnMT1l0pi-6" value="" style="triangle;whiteSpace=wrap;html=1;rotation=-90;fillStyle=hatch;fillColor=none;strokeWidth=3;" parent="i-S8iimXWw6h7pxZ6F7j-6" vertex="1">
          <mxGeometry x="361.75" y="-147.19000000000005" width="23.09" height="24" as="geometry" />
        </mxCell>
        <mxCell id="Uz3rCEKtNiIDnMT1l0pi-7" value="&lt;div style=&quot;text-align: center;&quot;&gt;&lt;span style=&quot;background-color: initial; font-size: 30px;&quot;&gt;&lt;b&gt;2&lt;/b&gt;&lt;/span&gt;&lt;/div&gt;" style="text;whiteSpace=wrap;html=1;" parent="i-S8iimXWw6h7pxZ6F7j-6" vertex="1">
          <mxGeometry x="329.75" y="-158" width="32" height="72" as="geometry" />
        </mxCell>
        <mxCell id="Uz3rCEKtNiIDnMT1l0pi-8" value="" style="triangle;whiteSpace=wrap;html=1;rotation=-90;fillStyle=hatch;fillColor=none;strokeWidth=3;" parent="i-S8iimXWw6h7pxZ6F7j-6" vertex="1">
          <mxGeometry x="556.85" y="-147.19000000000005" width="23.09" height="24" as="geometry" />
        </mxCell>
        <mxCell id="Qa2IWIjRX9hf4xpb3LUv-4" value="" style="group" parent="i-S8iimXWw6h7pxZ6F7j-6" vertex="1" connectable="0">
          <mxGeometry x="393.93729433272426" y="-53.99666666666667" width="186.0027056672759" height="58.99666666666667" as="geometry" />
        </mxCell>
        <mxCell id="Qa2IWIjRX9hf4xpb3LUv-5" value="&lt;span style=&quot;font-size: 30px;&quot;&gt;&amp;nbsp; sen(&lt;/span&gt;&lt;font style=&quot;font-size: 30px;&quot;&gt;Î¸&lt;/font&gt;&lt;span style=&quot;font-size: 30px;&quot;&gt;) /&amp;nbsp;&amp;nbsp;&lt;/span&gt;" style="text;html=1;align=center;verticalAlign=middle;resizable=1;points=[];autosize=1;strokeColor=none;fillColor=none;fontSize=36;fontStyle=1;strokeWidth=3;movable=1;rotatable=1;deletable=1;editable=1;connectable=1;container=1;" parent="Qa2IWIjRX9hf4xpb3LUv-4" vertex="1">
          <mxGeometry x="-7" width="173" height="55" as="geometry" />
        </mxCell>
        <mxCell id="Qa2IWIjRX9hf4xpb3LUv-6" value="&lt;b id=&quot;docs-internal-guid-ac6ccc65-7fff-ff76-2dcc-4af1ca112031&quot; style=&quot;font-weight: normal; font-size: 30px;&quot;&gt;&lt;p style=&quot;line-height: 1.2; margin-top: 0pt; margin-bottom: 0pt;&quot; dir=&quot;ltr&quot;&gt;&lt;span style=&quot;font-family: Arial; color: rgb(0, 0, 0); background-color: transparent; font-weight: 400; font-style: normal; font-variant: normal; text-decoration: none; vertical-align: baseline;&quot;&gt;&lt;font style=&quot;font-size: 30px;&quot;&gt;ð&lt;/font&gt;&lt;/span&gt;&lt;/p&gt;&lt;/b&gt;" style="text;whiteSpace=wrap;html=1;" parent="Qa2IWIjRX9hf4xpb3LUv-4" vertex="1">
          <mxGeometry x="137.0027056672759" y="5.3366666666667015" width="49" height="53.66" as="geometry" />
        </mxCell>
        <mxCell id="Qa2IWIjRX9hf4xpb3LUv-7" value="" style="group" parent="i-S8iimXWw6h7pxZ6F7j-6" vertex="1" connectable="0">
          <mxGeometry x="34.747294332724096" y="-53.99666666666667" width="186.0027056672759" height="58.99666666666667" as="geometry" />
        </mxCell>
        <mxCell id="Qa2IWIjRX9hf4xpb3LUv-8" value="&lt;span style=&quot;font-size: 30px;&quot;&gt;- sen(&lt;/span&gt;&lt;font style=&quot;font-size: 30px;&quot;&gt;Î¸&lt;/font&gt;&lt;span style=&quot;font-size: 30px;&quot;&gt;) /&amp;nbsp;&amp;nbsp;&lt;/span&gt;" style="text;html=1;align=center;verticalAlign=middle;resizable=1;points=[];autosize=1;strokeColor=none;fillColor=none;fontSize=36;fontStyle=1;strokeWidth=3;movable=1;rotatable=1;deletable=1;editable=1;connectable=1;container=1;" parent="Qa2IWIjRX9hf4xpb3LUv-7" vertex="1">
          <mxGeometry width="158" height="55" as="geometry" />
        </mxCell>
        <mxCell id="Qa2IWIjRX9hf4xpb3LUv-9" value="&lt;b id=&quot;docs-internal-guid-ac6ccc65-7fff-ff76-2dcc-4af1ca112031&quot; style=&quot;font-weight: normal; font-size: 30px;&quot;&gt;&lt;p style=&quot;line-height: 1.2; margin-top: 0pt; margin-bottom: 0pt;&quot; dir=&quot;ltr&quot;&gt;&lt;span style=&quot;font-family: Arial; color: rgb(0, 0, 0); background-color: transparent; font-weight: 400; font-style: normal; font-variant: normal; text-decoration: none; vertical-align: baseline;&quot;&gt;&lt;font style=&quot;font-size: 30px;&quot;&gt;ð&lt;/font&gt;&lt;/span&gt;&lt;/p&gt;&lt;/b&gt;" style="text;whiteSpace=wrap;html=1;" parent="Qa2IWIjRX9hf4xpb3LUv-7" vertex="1">
          <mxGeometry x="137.0027056672759" y="5.3366666666667015" width="49" height="53.66" as="geometry" />
        </mxCell>
        <mxCell id="WTPzTXzXavr7Unot5xOj-1" value="" style="rounded=0;whiteSpace=wrap;html=1;fillColor=none;movable=1;resizable=1;rotatable=1;deletable=1;editable=1;connectable=1;strokeWidth=3;fontFamily=Times New Roman;fontSize=36;" vertex="1" parent="1">
          <mxGeometry x="-1159.001803500362" y="-820.0028790313099" width="1148.261803500362" height="799.8746032368039" as="geometry" />
        </mxCell>
      </root>
    </mxGraphModel>
  </diagram>
</mxfile>
